<svg xmlns="http://www.w3.org/2000/svg" version="1.1" xmlns:xlink="http://www.w3.org/1999/xlink" xmlns:svgjs="http://svgjs.dev/svgjs" width="1000" height="1000" viewBox="0 0 1000 1000"><rect width="1000" height="1000" fill="#ffffff"></rect><g transform="matrix(0.7,0,0,0.7,150.0000000000001,106.25)"><svg viewBox="0 0 320 360" data-background-color="#ffffff" preserveAspectRatio="xMidYMid meet" height="1125" width="1000" xmlns="http://www.w3.org/2000/svg" xmlns:xlink="http://www.w3.org/1999/xlink"><g id="tight-bounds" transform="matrix(1,0,0,1,0,0)"><svg viewBox="0 0 320 360" height="360" width="320"><g><svg></svg></g><g><svg viewBox="0 0 320 360" height="360" width="320"><g><path xmlns="http://www.w3.org/2000/svg" d="M20.961 227.22l3.726 4.658-1.863-6.056c-0.466-2.795-3.726 0.466-1.863 1.398M25.153 224.425c1.397 2.329 2.795 4.658 2.795 6.987 0 3.261 2.795 4.658 5.123 5.589-3.261-3.726-5.124-13.974-7.918-12.576M204.017 26.929c7.918 0 15.371-0.932 23.756 0.931 20.495 5.124 37.729 15.371 49.374 29.811l32.606 52.169c1.397 13.042 4.192 27.482 3.726 43.319 3.261 0 2.795-4.658 6.521-5.59-3.726 9.316-5.59 20.961-6.521 34.469-2.329-7.453 0-18.632 0.466-24.687-3.261 5.124-5.124 1.397-5.124-0.932 0.466-3.726-1.397-3.261-2.795-4.658-5.124-4.658-8.384-9.782-12.11-17.7 2.329-6.055 2.795-14.905-4.658-19.563-2.329-1.397-5.124-3.726-6.521-7.453-1.863-5.124-5.124-11.179-4.193-19.097 0.466-2.329-6.987 5.124-11.179 1.863-18.166-12.576-36.332-27.016-58.224-39.127-11.645 0-20.029-4.192-24.221-9.316-3.726-4.658-0.932-10.713 4.658-11.179 3.261 0 6.987-0.932 9.782 0.932 0.466-1.863 2.329-4.192 4.657-4.192M157.904 16.215l0.932 0.466c4.658 0.932 6.987 7.453 12.11 5.124 0 3.261 0.466 6.521-0.466 8.85-1.397 3.726-5.59 3.726-8.85 3.726-31.208-1.863-49.374 11.179-68.471 22.358-5.124 3.261-10.713 5.59-14.906 9.782-20.029 18.632-41.921 35.866-47.045 70.335l-4.192 38.195c-0.466 4.192-5.124 8.384-4.192 13.508l3.26 22.824c-3.261-3.261-5.124 0.932-4.192 2.795 0.466 1.397 2.329 6.055 5.124 1.863 3.726 6.987 7.453 20.495 12.576 26.55 15.837 18.632 36.332 35.4 53.101 52.169 4.192-0.932 7.453-0.932 8.384-3.727 1.397 2.795-1.397 5.59-3.726 6.056 7.453 4.658 15.837 8.85 27.016 9.781 14.44 0.932 27.948 3.261 40.524 6.522 6.521-1.863 13.042-2.795 20.029-3.261 2.329 0 3.726-3.726 6.521-4.658l0.466-4.658c2.795 4.192 2.329-1.397 0.466-4.192 3.261 2.795 4.192 5.124 5.589 6.987 0-1.397 3.726-6.521 3.727-0.466l0.931-6.055c1.397-0.932 1.863 5.124 3.261 0.931 1.397-4.192 4.192-0.932 6.987-2.329-0.932 1.863-0.466 5.59 2.794 3.261l3.727-3.261c2.329 5.59 6.055 3.261 7.918 2.329 20.495-13.042 40.99-28.413 60.553-43.784l-0.466 6.055 2.329-7.453c2.329 2.329 4.192 0.466 5.124-0.931 2.795-4.658 6.521-9.316 12.577-13.508-7.453 20.029-16.303 35.866-27.482 48.908l-4.658 5.59c0 3.261-0.932 7.453-4.658 7.918-1.863 0.466-5.59-0.932-8.384 1.863-1.397 1.863 3.261 5.59-0.466 2.795-3.261-2.329-6.521 0-10.248 0.932-2.795 0.932 1.863 3.726 2.795 5.589 0.932 1.863 1.863 3.726 1.398 6.056l-5.124-5.59c-6.055 3.261-9.782 9.316-14.906 13.974-2.329 1.863-1.397 5.124-1.397 7.918-3.261 0-6.987-0.932-8.85 0.932-1.397 1.863-0.932 4.658-0.932 7.453-4.658-0.466-5.124-7.453-9.315-6.056-4.192 0.932-8.85 1.397-12.577 3.727 2.795 5.59-4.658 2.329-3.726 3.26-6.987-4.192-13.042-7.453-20.495-4.658-15.837-5.124-35.4-2.795-49.84-0.931 0-2.329 0.466-4.658-0.466-5.124-0.932 2.329-3.726 1.397-3.26 1.397-8.85-6.055-17.7-9.782-27.016-14.905-8.384 0.932-16.303-3.261-18.632-5.59-6.521-6.055-13.974-2.795-20.029-4.192-13.042-3.261-17.7-16.769-19.098-26.084-0.932-4.658-4.658-6.521-6.055-6.056-6.055-19.563-15.371-37.263-22.824-55.429-1.863-4.658-1.397-9.316-1.397-14.44 2.329 0.932 4.658 0.466 4.192-2.794-2.329-15.371-7.918-27.016-13.974-38.195 3.261-15.837 3.726-34.469 11.179-48.443 6.521-12.576 18.632-19.098 27.016-29.811 2.795-3.726 2.795-8.85 5.59-12.11 9.316-9.316 18.632-19.098 28.879-27.482 4.658-3.726 10.247 0 17.234-1.397 2.329-8.384 11.645-15.837 20.495-13.508 3.726 0.932 11.179-8.85 13.508-9.782 3.726-1.397 1.863 3.726 1.863 6.987 8.85-6.987 20.961-10.713 32.14-14.906" fill="#1ebbd7" fill-rule="nonzero" stroke="none" stroke-width="1" stroke-linecap="butt" stroke-linejoin="miter" stroke-miterlimit="10" stroke-dasharray="" stroke-dashoffset="0" font-family="none" font-weight="none" font-size="none" text-anchor="none" style="mix-blend-mode: normal" data-fill-palette-color="tertiary"></path></g><g transform="matrix(1,0,0,1,64,111.26266838529827)"><svg viewBox="0 0 192 137.47466322940346" height="137.47466322940346" width="192"><g><svg viewBox="0 0 192 137.47466322940346" height="137.47466322940346" width="192"><g><svg viewBox="0 0 192 137.47466322940346" height="137.47466322940346" width="192"><g transform="matrix(1,0,0,1,0,79.90706903017148)"><svg viewBox="0 0 192 57.56759419923199" height="57.56759419923199" width="192"><g id="textblocktransform"><svg viewBox="0 0 192 57.56759419923199" height="57.56759419923199" width="192" id="textblock"><g><svg viewBox="0 0 192 32.63609667946691" height="32.63609667946691" width="192"><g transform="matrix(1,0,0,1,0,0)"><svg width="192" viewBox="5.03000020980835 -36.25 216.14999389648438 36.7400016784668" height="32.63609667946691" data-palette-color="#1ebbd7"><path d="M11.08 0L5.03 0 5.03-35.77 11.08-35.77 11.08-20.75 28.86-20.75 28.86-35.77 34.91-35.77 34.91 0 28.86 0 28.86-16.46 11.08-16.46 11.08 0ZM42.62 0L42.62-1.81Q45.7-4.79 48.11-7.34 50.51-9.89 52.3-12.08 54.1-14.28 55.34-16.17 56.59-18.07 57.37-19.73 58.15-21.39 58.49-22.84 58.84-24.29 58.84-25.63L58.84-25.63Q58.84-27.32 58.29-28.49 57.74-29.66 56.82-30.38 55.91-31.1 54.75-31.42 53.59-31.74 52.37-31.74L52.37-31.74Q51.41-31.74 50.36-31.57 49.31-31.4 48.28-31.09 47.24-30.79 46.27-30.38 45.31-29.98 44.5-29.52L44.5-29.52 44.5-32.74Q46.63-34.35 49.34-35.3 52.05-36.25 54.83-36.25L54.83-36.25Q57.05-36.25 58.96-35.61 60.86-34.96 62.24-33.75 63.62-32.54 64.4-30.83 65.18-29.13 65.18-26.98L65.18-26.98Q65.18-24.68 64.27-22.19 63.35-19.7 61.48-16.92 59.62-14.14 56.81-11 54-7.86 50.22-4.3L50.22-4.3 66.48-4.3 65.65 0 42.62 0ZM91.65-3.81L91.65-3.81Q94.28-3.81 96.43-4.91 98.58-6.01 100.1-7.9 101.63-9.79 102.46-12.33 103.29-14.87 103.29-17.75L103.29-17.75Q103.29-20.8 102.38-23.4 101.46-26 99.85-27.91 98.24-29.81 96.04-30.88 93.84-31.96 91.28-31.96L91.28-31.96Q88.62-31.96 86.47-30.83 84.32-29.71 82.81-27.8 81.29-25.88 80.48-23.34 79.66-20.8 79.66-17.94L79.66-17.94Q79.66-14.89 80.56-12.3 81.46-9.72 83.06-7.84 84.66-5.96 86.86-4.88 89.06-3.81 91.65-3.81ZM90.82 0.49L90.82 0.49Q88.45 0.49 86.23-0.06 84-0.61 82.06-1.65 80.12-2.69 78.52-4.2 76.92-5.71 75.76-7.67 74.6-9.62 73.97-11.98 73.33-14.33 73.33-17.04L73.33-17.04Q73.33-19.85 74.02-22.36 74.7-24.88 75.93-27 77.17-29.13 78.9-30.85 80.63-32.57 82.72-33.76 84.81-34.96 87.2-35.61 89.59-36.25 92.18-36.25L92.18-36.25Q95.67-36.25 98.84-35.07 102-33.89 104.39-31.63 106.78-29.37 108.2-26.12 109.61-22.88 109.61-18.75L109.61-18.75Q109.61-15.97 108.94-13.45 108.27-10.94 107.05-8.8 105.83-6.67 104.12-4.94 102.41-3.22 100.32-2.01 98.24-0.81 95.83-0.16 93.43 0.49 90.82 0.49ZM139.67 0L136.61-9.23 122.28-9.23 119.28 0 113.86 0 126.53-35.77 133.39-35.77 146.06 0 139.67 0ZM123.58-13.38L135.27-13.38 131.02-26.61 129.68-31.71 129.19-31.71 127.87-26.61 123.58-13.38ZM162.15-3.81L162.15-3.81Q163.61-3.81 164.87-4.19 166.13-4.57 167.06-5.26 167.98-5.96 168.51-6.97 169.03-7.98 169.03-9.25L169.03-9.25Q169.03-10.77 168.31-11.82 167.59-12.87 166.4-13.66 165.2-14.45 163.69-15.09 162.17-15.72 160.6-16.38 159.02-17.04 157.51-17.83 156-18.63 154.8-19.74 153.6-20.85 152.88-22.39 152.16-23.93 152.16-26.1L152.16-26.1Q152.16-28.47 153.07-30.35 153.97-32.23 155.61-33.54 157.24-34.86 159.51-35.56 161.78-36.25 164.52-36.25L164.52-36.25Q165.32-36.25 166.37-36.18 167.42-36.11 168.62-35.95 169.81-35.79 171.12-35.53 172.43-35.28 173.74-34.89L173.74-34.89 172.79-30.15 172.33-29.91Q171.03-30.49 169.81-30.88 168.59-31.27 167.49-31.52 166.4-31.76 165.46-31.86 164.52-31.96 163.81-31.96L163.81-31.96Q162.47-31.96 161.37-31.64 160.27-31.32 159.5-30.71 158.73-30.1 158.3-29.21 157.88-28.32 157.88-27.17L157.88-27.17Q157.88-25.63 158.61-24.55 159.34-23.46 160.52-22.63 161.71-21.8 163.23-21.15 164.76-20.51 166.36-19.84 167.96-19.17 169.48-18.38 171.01-17.6 172.19-16.53 173.38-15.45 174.11-14 174.84-12.55 174.84-10.52L174.84-10.52Q174.84-8.25 173.89-6.25 172.94-4.25 171.19-2.75 169.45-1.25 167.01-0.38 164.57 0.49 161.56 0.49L161.56 0.49Q160.34 0.49 159 0.33 157.66 0.17 156.26-0.12 154.87-0.42 153.51-0.85 152.14-1.29 150.87-1.86L150.87-1.86 151.85-6.64 152.33-6.88Q154.92-5.47 157.39-4.64 159.85-3.81 162.15-3.81ZM189.05-35.77L189.05 0 183 0 183-35.77 189.05-35.77ZM208.48-3.81L208.48-3.81Q209.95-3.81 211.2-4.19 212.46-4.57 213.39-5.26 214.32-5.96 214.84-6.97 215.37-7.98 215.37-9.25L215.37-9.25Q215.37-10.77 214.65-11.82 213.93-12.87 212.73-13.66 211.53-14.45 210.02-15.09 208.51-15.72 206.93-16.38 205.36-17.04 203.84-17.83 202.33-18.63 201.13-19.74 199.94-20.85 199.22-22.39 198.5-23.93 198.5-26.1L198.5-26.1Q198.5-28.47 199.4-30.35 200.3-32.23 201.94-33.54 203.57-34.86 205.84-35.56 208.11-36.25 210.85-36.25L210.85-36.25Q211.65-36.25 212.7-36.18 213.75-36.11 214.95-35.95 216.15-35.79 217.45-35.53 218.76-35.28 220.08-34.89L220.08-34.89 219.13-30.15 218.66-29.91Q217.37-30.49 216.15-30.88 214.93-31.27 213.83-31.52 212.73-31.76 211.79-31.86 210.85-31.96 210.14-31.96L210.14-31.96Q208.8-31.96 207.7-31.64 206.6-31.32 205.83-30.71 205.06-30.1 204.64-29.21 204.21-28.32 204.21-27.17L204.21-27.17Q204.21-25.63 204.94-24.55 205.67-23.46 206.86-22.63 208.04-21.8 209.57-21.15 211.09-20.51 212.69-19.84 214.29-19.17 215.82-18.38 217.34-17.6 218.53-16.53 219.71-15.45 220.44-14 221.18-12.55 221.18-10.52L221.18-10.52Q221.18-8.25 220.22-6.25 219.27-4.25 217.53-2.75 215.78-1.25 213.34-0.38 210.9 0.49 207.9 0.49L207.9 0.49Q206.67 0.49 205.33 0.33 203.99 0.17 202.6-0.12 201.21-0.42 199.84-0.85 198.47-1.29 197.2-1.86L197.2-1.86 198.18-6.64 198.67-6.88Q201.25-5.47 203.72-4.64 206.19-3.81 208.48-3.81Z" opacity="1" transform="matrix(1,0,0,1,0,0)" fill="#1ebbd7" class="undefined-text-0" data-fill-palette-color="primary" id="text-0"></path></svg></g></svg></g><g transform="matrix(1,0,0,1,0,37.39848645132144)"><svg viewBox="0 0 192 20.16910774791055" height="20.16910774791055" width="192"><g transform="matrix(1,0,0,1,0,0)"><svg width="192" viewBox="1.100000023841858 -34.099998474121094 324.6199951171875 34.099998474121094" height="20.16910774791055" data-palette-color="#1ebbd7"><path d="M30.55-5.15L37.9-34.1 41.45-34.1 32.35 0 28.45 0 21.35-27.4 14.05 0 10.2 0 1.1-34.1 4.95-34.1 12.25-5.4 19.85-34.1 22.9-34.1 30.55-5.15ZM114.2 0L110.7 0 107.2-9.55 93.05-9.55 89.9 0 86.15 0 98.25-34.1 101.75-34.1 114.2 0ZM99.95-29.2L94.2-12.65 106.05-12.65 99.95-29.2ZM172.01 0L168.31 0 168.31-31 157.56-31 157.56-34.1 182.76-34.1 182.76-31 172.01-31 172.01 0ZM251.71 0L232.46 0 232.46-34.1 251.56-34.1 251.56-30.95 236.21-30.95 236.21-19.05 248.21-19.05 248.21-16 236.21-16 236.21-3.1 251.71-3.1 251.71 0ZM325.72 0L321.77 0 313.12-15.05 306.37-15.05 306.37 0 302.62 0 302.62-34.1 314.02-34.1Q317.12-34.1 319.47-32.9 321.82-31.7 323.07-29.53 324.32-27.35 324.32-24.55L324.32-24.55Q324.32-21.15 322.27-18.73 320.22-16.3 316.82-15.45L316.82-15.45 325.72 0ZM306.37-31L306.37-18.15 313.52-18.15Q316.82-18.15 318.59-19.9 320.37-21.65 320.37-24.55L320.37-24.55Q320.37-27.45 318.59-29.23 316.82-31 313.52-31L313.52-31 306.37-31Z" opacity="1" transform="matrix(1,0,0,1,0,0)" fill="#1ebbd7" class="undefined-text-1" data-fill-palette-color="secondary" id="text-1"></path></svg></g></svg></g></svg></g></svg></g><g transform="matrix(1,0,0,1,36.672,0)"><svg viewBox="0 0 118.656 75.14467925831696" height="75.14467925831696" width="118.656"><g><svg xmlns="http://www.w3.org/2000/svg" xmlns:xlink="http://www.w3.org/1999/xlink" version="1.1" x="0" y="0" viewBox="4.144000053405762 20.95899772644043 91.71200561523438 58.081085205078125" enable-background="new 0 0 100 100" xml:space="preserve" height="75.14467925831696" width="118.656" class="icon-icon-0" data-fill-palette-color="accent" id="icon-0"><path d="M44.632 28.796l1.573 0.528-1.164-1.183c-4.601-4.677-9.761-5.659-13.279-5.659-3.078 0-5.372 0.715-6.066 0.96-2.183-1.648-4.622-2.483-7.257-2.483-5.452 0-9.805 3.528-9.987 3.679l-0.935 0.769 1.208-0.067c0.975-0.054 1.924-0.08 2.823-0.08 4.393 0 7.019 0.646 8.46 1.198-0.183-0.003-0.364-0.006-0.543-0.006-13.203 0-15.089 9.235-15.106 9.329l-0.215 1.146 0.87-0.778c3.217-2.875 7.352-4.048 9.223-4.456-1.292 1.978-1.373 4.229-1.376 4.338l-0.024 0.852 0.667-0.53c3.387-2.687 7.545-2.978 9.175-2.978 0.107 0 0.206 0.001 0.296 0.003-1.299 2.576-6.507 13.895-7.375 31.183-1.111-1.525-3.034-2.258-3.131-2.294l-1.076-0.398 0.6 0.979c0.719 1.174 0.942 2.152 0.996 2.799-0.626-0.506-1.699-1.071-3.307-0.985l-1.014 0.057 0.783 0.646c0.593 0.489 2.167 2.036 2.313 3.295l0.042 0.352h16.493v-0.397c0-1.878 1.518-3.26 1.533-3.272l0.799-0.717-1.072 0.023c-1.275 0.029-2.335 0.652-2.964 1.131-0.094-2.403 0.904-3.789 0.915-3.802l0.705-0.941-1.13 0.321c-0.995 0.282-1.828 0.881-2.488 1.525 0.342-12.447 2.206-26.153 2.53-28.46 4.023 0.059 8.078 3.344 8.118 3.377l0.824 0.675-0.182-1.049c-0.25-1.447-0.999-2.578-1.63-3.31 4.608 1.03 8.331 3.67 8.371 3.699l1.058 0.759-0.455-1.22c-2.285-6.125-8.203-8.571-10.735-9.358 1.135-0.365 2.473-0.549 3.994-0.549C40.565 27.444 44.592 28.782 44.632 28.796zM23.903 60.008c-2.773-1.141-5.877-0.802-7.109-0.597 0.148-1.407 0.323-2.764 0.52-4.07 0.961-0.162 4.294-0.576 6.79 0.925C24.026 57.508 23.958 58.759 23.903 60.008zM24.518 50.665c-2.213-1.111-5.005-0.941-6.207-0.798 0.273-1.273 0.562-2.48 0.859-3.619 0.777-0.14 3.363-0.456 5.664 0.929C24.725 48.304 24.619 49.47 24.518 50.665zM25.267 42.978c-1.832-0.984-3.883-0.938-4.915-0.826 0.308-0.966 0.613-1.859 0.909-2.676 0.585-0.149 2.499-0.486 4.305 0.88C25.469 41.171 25.369 42.049 25.267 42.978zM26.066 36.316c-1.134-0.526-2.514-0.596-3.319-0.58 0.536-1.224 0.94-2.017 1.114-2.349 0.433-0.026 1.553 0 2.494 0.797C26.307 34.526 26.204 35.263 26.066 36.316z" fill="#1ebbd7" data-fill-palette-color="accent"></path><path d="M95.856 38.281l-0.215-1.146c-0.02-0.095-1.967-9.571-15.649-9.322 1.441-0.554 4.067-1.199 8.46-1.199 0.897 0 1.847 0.026 2.822 0.08l1.209 0.067-0.936-0.769c-0.183-0.151-4.536-3.679-9.987-3.679-2.635 0-5.074 0.835-7.257 2.483-0.695-0.245-2.989-0.96-6.066-0.96-3.518 0-8.678 0.982-13.278 5.66l-1.164 1.183 1.573-0.529c0.04-0.015 4.066-1.352 8.146-1.352 1.521 0 2.859 0.185 3.994 0.549-2.532 0.787-8.451 3.233-10.735 9.358l-0.455 1.22 1.059-0.76c0.04-0.029 3.762-2.669 8.371-3.699-0.632 0.732-1.381 1.862-1.631 3.309l-0.182 1.052 0.824-0.677c0.041-0.033 4.089-3.317 8.118-3.376 0.325 2.307 2.188 16.013 2.53 28.46-0.661-0.645-1.494-1.244-2.488-1.525l-1.116-0.315 0.688 0.933c0.013 0.016 1.011 1.401 0.917 3.805-0.63-0.479-1.689-1.104-2.965-1.131l-1.077-0.025 0.805 0.718c0.017 0.014 1.532 1.384 1.532 3.273v0.396h16.494l0.041-0.351c0.177-1.513 2.292-3.277 2.313-3.296l0.781-0.646-1.013-0.055c-1.606-0.087-2.681 0.479-3.308 0.985 0.054-0.647 0.276-1.627 0.997-2.801l0.599-0.979-1.075 0.401c-0.097 0.034-2.02 0.767-3.132 2.293-0.868-17.288-6.075-28.607-7.376-31.183 0.091-0.002 0.19-0.004 0.297-0.004 1.63 0 5.787 0.29 9.175 2.978l0.668 0.53-0.024-0.853c-0.005-0.108-0.085-2.359-1.377-4.336 1.87 0.407 6.007 1.58 9.223 4.456L95.856 38.281zM83.206 60.765c-1.231-0.205-4.336-0.543-7.109 0.598-0.055-1.249-0.122-2.501-0.2-3.743 2.492-1.497 5.828-1.085 6.791-0.924C82.884 58.002 83.06 59.358 83.206 60.765zM81.689 51.221c-1.202-0.144-3.994-0.313-6.207 0.799-0.101-1.195-0.207-2.362-0.316-3.487 2.302-1.386 4.887-1.071 5.665-0.93C81.129 48.741 81.416 49.948 81.689 51.221zM78.738 40.828c0.297 0.817 0.602 1.71 0.909 2.677-1.031-0.111-3.084-0.159-4.914 0.827-0.102-0.928-0.202-1.807-0.299-2.624C76.251 40.334 78.148 40.671 78.738 40.828zM77.253 37.088c-0.806-0.014-2.185 0.054-3.318 0.581-0.139-1.052-0.241-1.79-0.29-2.131 0.941-0.795 2.063-0.822 2.494-0.796C76.313 35.073 76.717 35.866 77.253 37.088z" fill="#1ebbd7" data-fill-palette-color="accent"></path><path d="M69.937 72.611c-2.295-5.68-3.443-4.958-2.295-9.913 1.146-4.956-10.911-6.318-18.358-6.153-10.709 0.237-19.053 0.991-16.828 8.426 2.225 7.434-5.263 3.992-7.708 9.361-2.445 5.369 12.853 4.888 22.658 4.475C57.211 78.393 72.23 78.29 69.937 72.611zM36.123 62.118c0.191-0.039 0.477-0.082 0.83-0.16 0.341-0.12 0.753-0.226 1.191-0.466 0.442-0.217 0.905-0.544 1.471-0.847 0.294-0.132 0.588-0.309 0.931-0.395 0.169-0.052 0.34-0.104 0.516-0.157 0.177-0.042 0.359-0.058 0.542-0.089 0.185-0.026 0.371-0.054 0.56-0.081 0.21-0.022 0.376-0.022 0.57-0.034 0.189-0.008 0.401 0.002 0.604 0.008 0.202 0.021 0.407 0.031 0.613 0.072 0.413 0.06 0.828 0.192 1.223 0.357 0.395 0.166 0.758 0.376 1.101 0.547 0.346 0.17 0.684 0.287 1.048 0.332 0.088 0.019 0.182 0.021 0.274 0.025l0.14 0.007 0.025 0.002 0.012-0.002 0.078-0.007 0.622-0.054c0.706-0.127 1.48-0.423 2.247-0.714 0.394-0.138 0.775-0.291 1.18-0.391 0.2-0.055 0.397-0.109 0.595-0.165 0.201-0.037 0.402-0.073 0.602-0.108 0.396-0.088 0.791-0.115 1.18-0.132 0.2-0.01 0.367-0.027 0.59-0.028 0.184 0.009 0.364 0.018 0.544 0.027 0.178 0.008 0.354 0.018 0.528 0.026 0.183 0.032 0.362 0.063 0.54 0.094 0.357 0.047 0.673 0.181 0.982 0.279 0.294 0.122 0.578 0.252 0.828 0.371 0.127 0.061 0.251 0.119 0.37 0.177 0.122 0.047 0.241 0.093 0.356 0.139 0.117 0.044 0.229 0.087 0.337 0.129 0.112 0.029 0.221 0.057 0.325 0.084 0.209 0.053 0.4 0.11 0.577 0.148 0.719 0.111 1.129 0.174 1.129 0.174s-0.419-0.004-1.151-0.011c-0.183-0.018-0.385-0.05-0.606-0.078-0.111-0.016-0.227-0.031-0.346-0.048-0.117-0.032-0.238-0.064-0.363-0.099-0.511-0.117-1.042-0.359-1.616-0.539-0.291-0.065-0.588-0.166-0.904-0.179-0.155-0.019-0.313-0.038-0.475-0.056-0.174 0.001-0.35 0.002-0.528 0.004-0.179 0.001-0.359 0.003-0.543 0.004-0.144 0.012-0.347 0.04-0.52 0.06-0.181 0.019-0.362 0.039-0.547 0.06-0.185 0.016-0.364 0.072-0.549 0.107-0.184 0.039-0.368 0.08-0.555 0.121-0.183 0.056-0.366 0.114-0.553 0.173-0.37 0.108-0.74 0.266-1.117 0.399-0.76 0.291-1.535 0.627-2.471 0.794l-0.622 0.046-0.079 0.007-0.075 0.003-0.043-0.002-0.172-0.01c-0.114-0.006-0.228-0.014-0.343-0.035-0.458-0.062-0.908-0.227-1.291-0.424-0.388-0.194-0.722-0.402-1.061-0.559-0.339-0.156-0.68-0.28-1.039-0.345-0.176-0.042-0.359-0.056-0.536-0.083-0.18-0.007-0.348-0.028-0.533-0.033-0.182 0.001-0.387-0.007-0.543 0.001-0.175 0.017-0.348 0.031-0.519 0.047-0.17 0.02-0.342 0.021-0.505 0.052-0.161 0.038-0.319 0.075-0.474 0.111-0.32 0.05-0.6 0.194-0.883 0.291-0.552 0.247-1.059 0.531-1.549 0.71-0.477 0.208-0.94 0.266-1.299 0.341-0.364 0.039-0.651 0.031-0.846 0.043-0.196 0.007-0.3 0.011-0.3 0.011S35.931 62.153 36.123 62.118zM61.383 67.786c0 0-0.106-0.004-0.306-0.01-0.198-0.014-0.494 0-0.865-0.045-0.187-0.019-0.393-0.04-0.616-0.063-0.224-0.033-0.467-0.07-0.725-0.109-0.258-0.042-0.529-0.104-0.818-0.161-0.283-0.074-0.586-0.147-0.894-0.247-0.62-0.182-1.275-0.434-1.949-0.714-0.674-0.276-1.373-0.569-2.09-0.697-0.091-0.021-0.171-0.018-0.258-0.029-0.083-0.009-0.166-0.021-0.272-0.014l-0.305 0.006c-0.046 0.01-0.168 0.025-0.248 0.037-0.357 0.063-0.698 0.181-1.024 0.365-0.652 0.362-1.251 1.033-2.154 1.407-0.452 0.175-0.92 0.273-1.419 0.252-0.259 0.001-0.407-0.03-0.672-0.057-0.221-0.05-0.45-0.079-0.662-0.149-0.865-0.248-1.612-0.688-2.292-1.084-0.683-0.396-1.328-0.78-1.951-0.84-0.301-0.012-0.611 0.042-0.854 0.172-0.063 0.02-0.134 0.063-0.204 0.115L40.6 66.063c-0.103 0.066-0.266 0.188-0.39 0.276-0.265 0.191-0.516 0.376-0.787 0.506-0.261 0.141-0.506 0.277-0.757 0.367-0.482 0.21-0.926 0.335-1.291 0.421-0.365 0.091-0.66 0.116-0.859 0.137-0.201 0.016-0.306 0.016-0.306 0.016s0.426-0.059 1.12-0.306c0.346-0.122 0.761-0.29 1.201-0.543 0.228-0.111 0.448-0.267 0.681-0.428 0.24-0.148 0.467-0.339 0.7-0.54 0.124-0.103 0.251-0.208 0.38-0.315l0.193-0.157c0.062-0.054 0.131-0.106 0.228-0.155 0.348-0.227 0.756-0.313 1.181-0.32 0.423 0.016 0.822 0.139 1.203 0.287 0.371 0.156 0.728 0.346 1.077 0.533 0.698 0.384 1.404 0.739 2.151 0.95 0.185 0.06 0.377 0.078 0.565 0.122 0.153 0.011 0.425 0.051 0.588 0.04 0.349 0.012 0.73-0.069 1.063-0.204 0.688-0.261 1.271-0.882 2.072-1.338 0.4-0.226 0.856-0.375 1.31-0.433 0.123-0.012 0.203-0.024 0.359-0.035l0.304 0.005c0.195 0 0.456 0.04 0.665 0.075 0.851 0.176 1.559 0.54 2.213 0.85 0.657 0.313 1.269 0.604 1.854 0.831 0.584 0.229 1.131 0.411 1.623 0.556 0.248 0.065 0.481 0.127 0.695 0.184 0.217 0.047 0.418 0.09 0.599 0.129 0.362 0.077 0.65 0.119 0.846 0.158C61.278 67.767 61.383 67.786 61.383 67.786zM63.462 74.127c-0.14 0.011-0.311 0.01-0.513-0.001-0.203 0.001-0.435-0.027-0.693-0.065-0.515-0.084-1.142-0.264-1.791-0.608-0.324-0.167-0.652-0.373-0.999-0.556-0.34-0.184-0.718-0.341-1.096-0.364-0.416-0.027-0.824 0.051-1.205 0.243-0.38 0.188-0.715 0.507-1.086 0.857-0.37 0.347-0.801 0.724-1.337 0.968-0.267 0.125-0.544 0.217-0.84 0.279-0.147 0.024-0.308 0.061-0.448 0.074l-0.412 0.032c-0.628 0.018-1.229-0.077-1.815-0.301-0.58-0.219-1.099-0.553-1.578-0.888-0.48-0.332-0.936-0.671-1.416-0.873-0.121-0.046-0.24-0.103-0.364-0.127l-0.183-0.049-0.171-0.022c-0.06-0.005-0.107-0.021-0.177-0.021l-0.221 0.005-0.111 0.002-0.04 0.001-0.01 0.003-0.023 0.003-0.19 0.03c-0.506 0.079-0.961 0.313-1.386 0.661-0.431 0.34-0.834 0.77-1.337 1.142-0.501 0.378-1.095 0.66-1.749 0.755-0.595 0.087-1.234 0.059-1.815-0.097-0.589-0.157-1.116-0.449-1.561-0.771-0.449-0.32-0.839-0.655-1.24-0.912-0.393-0.259-0.827-0.427-1.228-0.476-0.092-0.026-0.231-0.012-0.341-0.021-0.05-0.001-0.136-0.005-0.156-0.004l-0.162 0.015c-0.216 0.011-0.425 0.058-0.63 0.099-0.814 0.208-1.518 0.61-2.16 0.937-0.64 0.332-1.23 0.586-1.736 0.72-0.504 0.144-0.919 0.173-1.195 0.186-0.277 0.002-0.424 0.004-0.424 0.004s0.147-0.017 0.422-0.048c0.274-0.04 0.668-0.122 1.148-0.293 0.481-0.17 1.027-0.457 1.633-0.834 0.607-0.37 1.289-0.849 2.185-1.126 0.225-0.06 0.457-0.124 0.699-0.15l0.183-0.025c0.096-0.009 0.127-0.006 0.194-0.009 0.123 0.002 0.224-0.019 0.367 0.002 0.553 0.029 1.062 0.229 1.527 0.501 0.916 0.554 1.677 1.281 2.661 1.502 0.49 0.115 0.999 0.132 1.526 0.041 0.472-0.085 0.948-0.309 1.367-0.629 0.428-0.318 0.825-0.745 1.309-1.138 0.473-0.399 1.093-0.738 1.757-0.845l0.248-0.037 0.031-0.005 0.016-0.001 0.045-0.004h0.056l0.11-0.001 0.221-0.004c0.078 0.002 0.176 0.017 0.263 0.026 0.089 0.013 0.181 0.021 0.266 0.037l0.243 0.066c0.166 0.038 0.313 0.107 0.466 0.168 0.602 0.263 1.084 0.639 1.551 0.966 0.467 0.329 0.921 0.627 1.401 0.824 0.472 0.199 1 0.287 1.477 0.288l0.413-0.021c0.133-0.011 0.24-0.037 0.36-0.053 0.235-0.045 0.473-0.114 0.693-0.206 0.444-0.179 0.824-0.479 1.202-0.805 0.377-0.321 0.771-0.685 1.262-0.897 0.48-0.215 1.018-0.276 1.479-0.219 0.507 0.063 0.916 0.274 1.268 0.494 0.348 0.223 0.651 0.448 0.951 0.633 0.594 0.379 1.172 0.596 1.667 0.717 0.249 0.058 0.472 0.103 0.671 0.125 0.197 0.031 0.365 0.052 0.503 0.056 0.276 0.017 0.424 0.025 0.424 0.025S63.738 74.115 63.462 74.127z" fill="#1ebbd7" data-fill-palette-color="accent"></path></svg></g></svg></g><g></g></svg></g></svg></g></svg></g></svg></g><defs></defs></svg><rect width="320" height="360" fill="none" stroke="none" visibility="hidden"></rect></g></svg></g></svg>